<?xml version="1.0" encoding="UTF-8"?>
<svg xmlns="http://www.w3.org/2000/svg" viewBox="0 0 1920 1080">
<defs><style>
.t{font-family:Arial,sans-serif;font-size:72px;font-weight:900;fill:#2C3E50}
.st{font-family:Arial,sans-serif;font-size:36px;font-weight:500;fill:#7F8C8D}
.h1{font-family:Arial,sans-serif;font-size:56px;font-weight:700;fill:#2C3E50}
.h2{font-family:Arial,sans-serif;font-size:42px;font-weight:700;fill:#2C3E50}
.bd{font-family:Arial,sans-serif;font-size:32px;font-weight:400;fill:#2C3E50}
.sm{font-family:Arial,sans-serif;font-size:28px;font-weight:400;fill:#2C3E50}
.tp{font-family:Arial,sans-serif;font-size:28px;font-weight:500;fill:#7F8C8D}
</style></defs>
<rect width="1920" height="1080" fill="white"/>
<circle cx="885" cy="180" r="12" fill="#FFB6C1"/><circle cx="915" cy="180" r="12" fill="#98D8C8"/><circle cx="945" cy="180" r="12" fill="#B19CD9"/><circle cx="975" cy="180" r="12" fill="#6C9BCF"/><circle cx="1005" cy="180" r="12" fill="#F4D35E"/>
<text x="960" y="260" class="h1" text-anchor="middle">ν–‰λ ¬ λ¶„ν•΄ μ‹κ°ν™”</text>
<text x="960" y="340" class="h2" text-anchor="middle" fill="#B19CD9">μ: 1000Γ—1000 ν–‰λ ¬μ„ rank=64λ΅ λ¶„ν•΄</text>
<rect x="200" y="420" width="270" height="250" rx="20" fill="#FFB6C1" opacity="0.2"/>
<text x="335" y="480" class="h2" text-anchor="middle">B</text>
<text x="335" y="540" class="bd" text-anchor="middle">[1000Γ—64]</text>
<text x="335" y="600" class="sm" text-anchor="middle">64,000κ°</text>
<text x="335" y="650" class="sm" text-anchor="middle">νλΌλ―Έν„°</text>
<text x="530" y="545" class="h1" text-anchor="middle">Γ—</text>
<rect x="590" y="420" width="430" height="250" rx="20" fill="#98D8C8" opacity="0.2"/>
<text x="805" y="480" class="h2" text-anchor="middle">A</text>
<text x="805" y="540" class="bd" text-anchor="middle">[64Γ—1000]</text>
<text x="805" y="600" class="sm" text-anchor="middle">64,000κ°</text>
<text x="805" y="650" class="sm" text-anchor="middle">νλΌλ―Έν„°</text>
<text x="1090" y="545" class="h1" text-anchor="middle">=</text>
<rect x="1150" y="420" width="420" height="250" rx="20" fill="#6C9BCF" opacity="0.2"/>
<text x="1360" y="480" class="h2" text-anchor="middle">Ξ”W</text>
<text x="1360" y="540" class="bd" text-anchor="middle">[1000Γ—1000]</text>
<text x="1360" y="600" class="sm" text-anchor="middle">λ™μΌν• κ²°κ³Ό!</text>
<rect x="200" y="710" width="750" height="140" rx="25" fill="#F4D35E" opacity="0.15"/>
<text x="575" y="770" class="h2" text-anchor="middle">LoRA μ €μ¥: 128K νλΌλ―Έν„°</text>
<text x="575" y="825" class="bd" text-anchor="middle">64K + 64K = 128,000κ°</text>
<rect x="1000" y="710" width="720" height="140" rx="25" fill="#E74C3C" opacity="0.15"/>
<text x="1360" y="770" class="h2" text-anchor="middle">μ§μ ‘ μ €μ¥: 1M νλΌλ―Έν„°</text>
<text x="1360" y="825" class="bd" text-anchor="middle">1,000,000κ° (87% μ κ°!)</text>
<rect x="80" y="980" width="1760" height="80" rx="15" fill="#F8F9FA"/><text x="120" y="1035" class="tp">π’΅ ν–‰λ ¬ κ³±μ…μΌλ΅ λ³µμ› κ°€λ¥ν•λ―€λ΅ μ‘μ€ B, Aλ§ μ €μ¥ν•λ©΄ λ¨</text>
</svg>