<svg xmlns="http://www.w3.org/2000/svg" viewBox="0 0 1920 1080">
  <rect width="1920" height="1080" fill="#FFFFFF"/>
  <rect x="80" y="60" width="320" height="50" rx="25" fill="#FF6B6B" opacity="0.2"/>
  <text x="240" y="92" font-family="system-ui, sans-serif" font-size="22" font-weight="600" fill="#FF6B6B" text-anchor="middle">Section 2: 실패 분석</text>
  <text x="960" y="160" font-family="system-ui, sans-serif" font-size="64" font-weight="bold" fill="#2C3E50" text-anchor="middle">실패 5: 낮은 관련성</text>
  <text x="960" y="220" font-family="system-ui, sans-serif" font-size="28" fill="#7F8C8D" text-anchor="middle">"Threshold 없어 노이즈 혼입"</text>
  <g transform="translate(960, 240)"><circle cx="-60" cy="0" r="6" fill="#FF6B6B"/><circle cx="-30" cy="0" r="6" fill="#4ECDC4"/><circle cx="0" cy="0" r="6" fill="#45B7D1"/><circle cx="30" cy="0" r="6" fill="#96CEB4"/><circle cx="60" cy="0" r="6" fill="#FFEAA7"/></g>
  <rect x="200" y="300" width="1520" height="600" rx="20" fill="#F8F9FA" stroke="#E0E0E0" stroke-width="2"/>
  <text x="960" y="360" font-family="system-ui, sans-serif" font-size="32" font-weight="bold" fill="#2C3E50" text-anchor="middle">📊 유사도 점수 분포</text>
  <g transform="translate(300, 400)">
    <rect x="0" y="0" width="400" height="100" fill="#27AE60" opacity="0.7"/>
    <text x="200" y="55" font-family="system-ui, sans-serif" font-size="24" fill="#FFFFFF" text-anchor="middle">1위: 0.92 ✅ 관련</text>
    <rect x="0" y="120" width="350" height="100" fill="#27AE60" opacity="0.6"/>
    <text x="175" y="175" font-family="system-ui, sans-serif" font-size="24" fill="#FFFFFF" text-anchor="middle">2위: 0.85 ✅</text>
    <rect x="0" y="240" width="250" height="100" fill="#F39C12" opacity="0.5"/>
    <text x="125" y="295" font-family="system-ui, sans-serif" font-size="24" fill="#FFFFFF" text-anchor="middle">3위: 0.65 ⚠️</text>
    <text x="550" y="295" font-family="system-ui, sans-serif" font-size="22" fill="#E74C3C">← Naive RAG는 이것도 Top-3에 포함!</text>
  </g>
  <rect x="200" y="930" width="1520" height="110" rx="20" fill="#D5F4E6" stroke="#27AE60" stroke-width="3"/>
  <text x="400" y="985" font-family="system-ui, sans-serif" font-size="28" font-weight="bold" fill="#27AE60">✅ 해결: Threshold=0.75</text>
  <text x="400" y="1020" font-family="system-ui, sans-serif" font-size="24" fill="#229954">0.75 이상만 검색 → 노이즈 제거!</text>
  <text x="1850" y="1040" font-family="system-ui, sans-serif" font-size="24" fill="#BDC3C7" text-anchor="end">14 / 63</text>
</svg>