<svg xmlns="http://www.w3.org/2000/svg" viewBox="0 0 1920 1080">
  <rect width="1920" height="1080" fill="#FFFFFF"/>
  <rect x="80" y="60" width="420" height="50" rx="25" fill="#4ECDC4" opacity="0.2"/>
  <text x="290" y="92" font-family="system-ui, sans-serif" font-size="22" font-weight="600" fill="#4ECDC4" text-anchor="middle">Section 3: 프롬프트 엔지니어링</text>
  <text x="960" y="160" font-family="system-ui, sans-serif" font-size="64" font-weight="bold" fill="#2C3E50" text-anchor="middle">Before / After</text>
  <text x="960" y="220" font-family="system-ui, sans-serif" font-size="28" fill="#7F8C8D" text-anchor="middle">"프롬프트 개선 효과"</text>
  <g transform="translate(960, 240)"><circle cx="-60" cy="0" r="6" fill="#FF6B6B"/><circle cx="-30" cy="0" r="6" fill="#4ECDC4"/><circle cx="0" cy="0" r="6" fill="#45B7D1"/><circle cx="30" cy="0" r="6" fill="#96CEB4"/><circle cx="60" cy="0" r="6" fill="#FFEAA7"/></g>
  <g transform="translate(200, 320)">
    <rect x="0" y="0" width="700" height="580" rx="20" fill="#FFE6E6" stroke="#E74C3C" stroke-width="3"/>
    <text x="350" y="60" font-family="system-ui, sans-serif" font-size="32" font-weight="bold" fill="#E74C3C" text-anchor="middle">❌ Before</text>
    <text x="40" y="120" font-family="system-ui, sans-serif" font-size="20" fill="#34495E">"답변해주세요"</text>
    <text x="40" y="180" font-family="system-ui, sans-serif" font-size="22" font-weight="600" fill="#E74C3C">결과:</text>
    <text x="40" y="220" font-family="system-ui, sans-serif" font-size="18" fill="#7F8C8D">• 환각 28%</text>
    <text x="40" y="260" font-family="system-ui, sans-serif" font-size="18" fill="#7F8C8D">• 애매한 답변 다수</text>
    <text x="40" y="300" font-family="system-ui, sans-serif" font-size="18" fill="#7F8C8D">• 근거 없는 주장</text>
  </g>
  <g transform="translate(1020, 320)">
    <rect x="0" y="0" width="700" height="580" rx="20" fill="#D5F4E6" stroke="#27AE60" stroke-width="3"/>
    <text x="350" y="60" font-family="system-ui, sans-serif" font-size="32" font-weight="bold" fill="#27AE60" text-anchor="middle">✅ After</text>
    <text x="40" y="120" font-family="system-ui, sans-serif" font-size="18" fill="#34495E">"전문가로서, 문서 기반, 제약조건"</text>
    <text x="40" y="180" font-family="system-ui, sans-serif" font-size="22" font-weight="600" fill="#27AE60">결과:</text>
    <text x="40" y="220" font-family="system-ui, sans-serif" font-size="18" fill="#229954">• 환각 6% (-78%)</text>
    <text x="40" y="260" font-family="system-ui, sans-serif" font-size="18" fill="#229954">• 명확한 답변</text>
    <text x="40" y="300" font-family="system-ui, sans-serif" font-size="18" fill="#229954">• 조항 인용 증가</text>
  </g>
  <text x="1850" y="1040" font-family="system-ui, sans-serif" font-size="24" fill="#BDC3C7" text-anchor="end">17 / 63</text>
</svg>