<svg viewBox="0 0 1920 1080" xmlns="http://www.w3.org/2000/svg">
  <defs>
    <linearGradient id="bgGrad035" x1="0%" y1="0%" x2="100%" y2="100%">
      <stop offset="0%" style="stop-color:#c1dfc4;stop-opacity:1" />
      <stop offset="100%" style="stop-color:#deecdd;stop-opacity:1" />
    </linearGradient>
    <filter id="shadow035"><feDropShadow dx="0" dy="4" stdDeviation="8" flood-opacity="0.3"/></filter>
  </defs>
  <rect width="1920" height="1080" fill="url(#bgGrad035)"/>
  <g transform="translate(150, 80)">
    <rect x="0" y="0" width="200" height="50" rx="25" fill="white" opacity="0.5"/>
    <text x="100" y="35" font-size="24" fill="#2e7d32" text-anchor="middle" font-weight="bold">Part 6</text>
  </g>
  <text x="960" y="140" font-size="56" fill="#2e7d32" text-anchor="middle" font-weight="bold">Tuning νλΌλ―Έν„° β™οΈ</text>
  <text x="960" y="200" font-size="32" fill="#558b2f" text-anchor="middle">μ„±λ¥ μµμ ν™”λ¥Ό μ„ν• 3λ€ νλΌλ―Έν„°</text>
  <g transform="translate(200, 270)">
    <g transform="translate(0, 0)">
      <rect x="0" y="0" width="490" height="580" rx="20" fill="white" opacity="0.95" filter="url(#shadow035)"/>
      <text x="245" y="50" font-size="32" fill="#1976d2" text-anchor="middle" font-weight="bold">chunk_size</text>
      <text x="245" y="90" font-size="24" fill="#666" text-anchor="middle">μ²­ν¬ ν¬κΈ°</text>
      <g transform="translate(40, 130)">
        <rect x="0" y="0" width="410" height="80" rx="10" fill="#e3f2fd"/>
        <text x="205" y="30" font-size="22" fill="#333" text-anchor="middle" font-weight="bold">κ¶μ¥ λ²”μ„</text>
        <text x="205" y="60" font-size="24" fill="#1976d2" text-anchor="middle" font-weight="bold">200 ~ 500 κΈ€μ</text>
        <text x="0" y="120" font-size="22" fill="#666" font-weight="bold">ν¨κ³Ό:</text>
        <text x="0" y="155" font-size="20" fill="#666">β€Ά μ‘μ„μλ΅: μ •ν™•λ„ β†‘</text>
        <text x="0" y="190" font-size="20" fill="#666">  (μλ―Έ λ…ν™•, λ…Έμ΄μ¦ β†“)</text>
        <text x="0" y="235" font-size="20" fill="#666">β€Ά ν΄μλ΅: λ¬Έλ§¥ β†‘</text>
        <text x="0" y="270" font-size="20" fill="#666">  (μ •λ³΄ μ™„μ „)</text>
        <rect x="0" y="310" width="410" height="90" rx="10" fill="#fff9c4"/>
        <text x="205" y="345" font-size="20" fill="#f57f17" text-anchor="middle" font-weight="bold">π’΅ Best Practice</text>
        <text x="205" y="375" font-size="18" fill="#666" text-anchor="middle">300~400 κΈ€μ + overlap</text>
      </g>
    </g>
    <g transform="translate(515, 0)">
      <rect x="0" y="0" width="490" height="580" rx="20" fill="white" opacity="0.95" filter="url(#shadow035)"/>
      <text x="245" y="50" font-size="32" fill="#7b1fa2" text-anchor="middle" font-weight="bold">top_k</text>
      <text x="245" y="90" font-size="24" fill="#666" text-anchor="middle">κ²€μƒ‰ λ¬Έμ„ κ°μ</text>
      <g transform="translate(40, 130)">
        <rect x="0" y="0" width="410" height="80" rx="10" fill="#f3e5f5"/>
        <text x="205" y="30" font-size="22" fill="#333" text-anchor="middle" font-weight="bold">κ¶μ¥ λ²”μ„</text>
        <text x="205" y="60" font-size="24" fill="#7b1fa2" text-anchor="middle" font-weight="bold">3 ~ 10 κ°</text>
        <text x="0" y="120" font-size="22" fill="#666" font-weight="bold">ν¨κ³Ό:</text>
        <text x="0" y="155" font-size="20" fill="#666">β€Ά μ μ„μλ΅: μ •ν™•λ„ β†‘</text>
        <text x="0" y="190" font-size="20" fill="#666">  (κ΄€λ ¨ λ¬Έμ„λ§)</text>
        <text x="0" y="235" font-size="20" fill="#666">β€Ά λ§μ„μλ΅: Recall β†‘</text>
        <text x="0" y="270" font-size="20" fill="#666">  (λ„λ½ λ°©μ§€)</text>
        <rect x="0" y="310" width="410" height="90" rx="10" fill="#fff9c4"/>
        <text x="205" y="345" font-size="20" fill="#f57f17" text-anchor="middle" font-weight="bold">π’΅ Best Practice</text>
        <text x="205" y="375" font-size="18" fill="#666" text-anchor="middle">5κ° (Naive) / 10κ° (Rerank)</text>
      </g>
    </g>
    <g transform="translate(1030, 0)">
      <rect x="0" y="0" width="490" height="580" rx="20" fill="white" opacity="0.95" filter="url(#shadow035)"/>
      <text x="245" y="50" font-size="32" fill="#e65100" text-anchor="middle" font-weight="bold">threshold</text>
      <text x="245" y="90" font-size="24" fill="#666" text-anchor="middle">μ μ‚¬λ„ μ„κ³„κ°’</text>
      <g transform="translate(40, 130)">
        <rect x="0" y="0" width="410" height="80" rx="10" fill="#fff3e0"/>
        <text x="205" y="30" font-size="22" fill="#333" text-anchor="middle" font-weight="bold">κ¶μ¥ λ²”μ„</text>
        <text x="205" y="60" font-size="24" fill="#e65100" text-anchor="middle" font-weight="bold">0.3 ~ 0.7</text>
        <text x="0" y="120" font-size="22" fill="#666" font-weight="bold">ν¨κ³Ό:</text>
        <text x="0" y="155" font-size="20" fill="#666">β€Ά λ†’μ„μλ΅: μ •ν™•λ„ β†‘</text>
        <text x="0" y="190" font-size="20" fill="#666">  (μ—„κ²© ν•„ν„°λ§)</text>
        <text x="0" y="235" font-size="20" fill="#666">β€Ά λ‚®μ„μλ΅: Recall β†‘</text>
        <text x="0" y="270" font-size="20" fill="#666">  (λ” λ§μ΄ κ²€μƒ‰)</text>
        <rect x="0" y="310" width="410" height="90" rx="10" fill="#fff9c4"/>
        <text x="205" y="345" font-size="20" fill="#f57f17" text-anchor="middle" font-weight="bold">π’΅ Best Practice</text>
        <text x="205" y="375" font-size="18" fill="#666" text-anchor="middle">0.5~0.6 (κ· ν•μκ²)</text>
      </g>
    </g>
  </g>
  <g transform="translate(200, 880)">
    <rect x="0" y="0" width="1520" height="140" rx="20" fill="#4caf50" filter="url(#shadow035)"/>
    <text x="760" y="45" font-size="32" fill="white" text-anchor="middle" font-weight="bold">π’΅ νλΌλ―Έν„° νλ‹ ν</text>
    <g transform="translate(100, 75)">
      <text x="0" y="0" font-size="24" fill="white">1οΈβƒ£ chunk_size: 300-400μΌλ΅ μ‹μ‘ β†’ RAGASλ΅ μΈ΅μ • β†’ μ΅°μ •</text>
      <text x="0" y="40" font-size="24" fill="white">2οΈβƒ£ top_k: 5κ° β†’ μ„±λ¥ μ•λ‚μ¤λ©΄ 10κ° (Reranking ν•„μ)</text>
    </g>
  </g>
  <text x="960" y="1065" font-size="20" fill="#2e7d32" text-anchor="middle" opacity="0.8">Slide 35 / 38 | Part 6 μ™„λ£! π―</text>
</svg>