<svg viewBox="0 0 1920 1080" xmlns="http://www.w3.org/2000/svg">
  <defs>
    <linearGradient id="bgGrad029" x1="0%" y1="0%" x2="100%" y2="100%">
      <stop offset="0%" style="stop-color:#ffecd2;stop-opacity:1" />
      <stop offset="100%" style="stop-color:#fcb69f;stop-opacity:1" />
    </linearGradient>
    <filter id="shadow029"><feDropShadow dx="0" dy="4" stdDeviation="8" flood-opacity="0.3"/></filter>
  </defs>
  <rect width="1920" height="1080" fill="url(#bgGrad029)"/>
  <g transform="translate(150, 80)">
    <rect x="0" y="0" width="200" height="50" rx="25" fill="white" opacity="0.5"/>
    <text x="100" y="35" font-size="24" fill="#d84315" text-anchor="middle" font-weight="bold">Part 5</text>
  </g>
  <text x="960" y="140" font-size="56" fill="#d84315" text-anchor="middle" font-weight="bold">Self-RAG 🔍</text>
  <text x="960" y="200" font-size="32" fill="#e64a19" text-anchor="middle">답변 품질 자가 평가 후 재검색 결정</text>
  <g transform="translate(200, 270)">
    <rect x="0" y="0" width="1520" height="650" rx="20" fill="white" opacity="0.95" filter="url(#shadow029)"/>
    <text x="760" y="50" font-size="32" fill="#333" text-anchor="middle" font-weight="bold">Self-RAG 작동 흐름</text>
    <g transform="translate(150, 110)">
      <circle cx="40" cy="30" r="30" fill="#1976d2"/>
      <text x="40" y="40" font-size="24" fill="white" text-anchor="middle" font-weight="bold">1</text>
      <text x="100" y="40" font-size="24" fill="#666">질문 입력 → 초기 검색 및 답변 생성</text>
      <circle cx="40" cy="110" r="30" fill="#7b1fa2"/>
      <text x="40" y="120" font-size="24" fill="white" text-anchor="middle" font-weight="bold">2</text>
      <text x="100" y="120" font-size="24" fill="#666">LLM이 자신의 답변 품질 평가 (0-100 점수)</text>
      <g transform="translate(0, 160)">
        <rect x="0" y="0" width="600" height="80" rx="15" fill="#e8f5e9"/>
        <text x="300" y="30" font-size="22" fill="#2e7d32" text-anchor="middle" font-weight="bold">✅ 점수 ≥ 70: 답변 그대로 반환</text>
        <text x="300" y="60" font-size="20" fill="#666" text-anchor="middle">"충분히 정확합니다"</text>
      </g>
      <g transform="translate(650, 160)">
        <rect x="0" y="0" width="600" height="80" rx="15" fill="#ffebee"/>
        <text x="300" y="30" font-size="22" fill="#c62828" text-anchor="middle" font-weight="bold">❌ 점수 < 70: 재검색 실행</text>
        <text x="300" y="60" font-size="20" fill="#666" text-anchor="middle">"더 찾아보겠습니다"</text>
      </g>
      <circle cx="40" cy="330" r="30" fill="#e65100"/>
      <text x="40" y="340" font-size="24" fill="white" text-anchor="middle" font-weight="bold">3</text>
      <text x="100" y="340" font-size="24" fill="#666">재검색 시: Query Refinement 적용 (Multi-Query, HyDE)</text>
      <circle cx="40" cy="410" r="30" fill="#2e7d32"/>
      <text x="40" y="420" font-size="24" fill="white" text-anchor="middle" font-weight="bold">4</text>
      <text x="100" y="420" font-size="24" fill="#666">새 문서로 답변 재생성 → 최종 답변 반환</text>
    </g>
  </g>
  <g transform="translate(200, 950)">
    <rect x="0" y="0" width="1520" height="80" rx="20" fill="#4caf50" filter="url(#shadow029)"/>
    <text x="760" y="50" font-size="28" fill="white" text-anchor="middle" font-weight="bold">💡 Self-RAG: "답변이 불확실하면 다시 찾아본다" (정확도 +5%)</text>
  </g>
  <text x="960" y="1065" font-size="20" fill="#d84315" text-anchor="middle" opacity="0.8">Slide 29 / 38</text>
</svg>