<svg viewBox="0 0 1920 1080" xmlns="http://www.w3.org/2000/svg">
  <defs>
    <linearGradient id="bgGrad024" x1="0%" y1="0%" x2="100%" y2="100%">
      <stop offset="0%" style="stop-color:#a8edea;stop-opacity:1" />
      <stop offset="100%" style="stop-color:#fed6e3;stop-opacity:1" />
    </linearGradient>
    <filter id="shadow024">
      <feDropShadow dx="0" dy="4" stdDeviation="8" flood-opacity="0.3"/>
    </filter>
  </defs>
  <rect width="1920" height="1080" fill="url(#bgGrad024)"/>
  <g transform="translate(150, 80)">
    <rect x="0" y="0" width="200" height="50" rx="25" fill="white" opacity="0.5"/>
    <text x="100" y="35" font-size="24" fill="#333" text-anchor="middle" font-weight="bold">Part 4</text>
  </g>
  <text x="960" y="140" font-size="56" fill="#333" text-anchor="middle" font-weight="bold">RRF 알고리즘 🔢</text>
  <text x="960" y="200" font-size="32" fill="#666" text-anchor="middle">Reciprocal Rank Fusion - 순위 리스트 합치기</text>
  <g transform="translate(200, 260)">
    <rect x="0" y="0" width="1520" height="200" rx="20" fill="white" opacity="0.95" filter="url(#shadow024)"/>
    <text x="760" y="45" font-size="32" fill="#333" text-anchor="middle" font-weight="bold">RRF 공식</text>
    <rect x="300" y="70" width="1120" height="100" rx="15" fill="#263238"/>
    <g transform="translate(660, 120)" font-family="monospace">
      <text x="0" y="0" font-size="36" fill="#81c784" text-anchor="middle" font-weight="bold">RRF(d) = Σ [ 1 / (k + rank(d)) ]</text>
    </g>
  </g>
  <g transform="translate(200, 490)">
    <rect x="0" y="0" width="1520" height="450" rx="20" fill="white" opacity="0.95" filter="url(#shadow024)"/>
    <text x="760" y="50" font-size="32" fill="#333" text-anchor="middle" font-weight="bold">예시: "김치찌개 레시피" 검색</text>
    <g transform="translate(50, 100)">
      <rect x="0" y="0" width="450" height="300" rx="15" fill="#e3f2fd"/>
      <text x="225" y="40" font-size="26" fill="#1976d2" text-anchor="middle" font-weight="bold">Vector 결과</text>
      <g transform="translate(40, 70)">
        <text x="0" y="0" font-size="22" fill="#666">1위: 김치찌개 레시피</text>
        <text x="0" y="45" font-size="22" fill="#666">2위: 백종원 김치찌개</text>
        <text x="0" y="90" font-size="22" fill="#666">3위: 된장찌개 레시피</text>
        <text x="0" y="135" font-size="22" fill="#666">4위: 제육볶음 레시피</text>
        <text x="0" y="180" font-size="22" fill="#666">5위: 불고기 레시피</text>
      </g>
    </g>
    <g transform="translate(535, 100)">
      <rect x="0" y="0" width="450" height="300" rx="15" fill="#fff3e0"/>
      <text x="225" y="40" font-size="26" fill="#e65100" text-anchor="middle" font-weight="bold">BM25 결과</text>
      <g transform="translate(40, 70)">
        <text x="0" y="0" font-size="22" fill="#666">1위: 백종원 김치찌개</text>
        <text x="0" y="45" font-size="22" fill="#666">2위: 김치찌개 레시피</text>
        <text x="0" y="90" font-size="22" fill="#666">3위: 흑백요리사 김치찌개</text>
        <text x="0" y="135" font-size="22" fill="#666">4위: 김치볶음밥</text>
        <text x="0" y="180" font-size="22" fill="#666">5위: 된장찌개 레시피</text>
      </g>
    </g>
    <g transform="translate(1020, 100)">
      <rect x="0" y="0" width="450" height="300" rx="15" fill="#e8f5e9"/>
      <text x="225" y="40" font-size="26" fill="#2e7d32" text-anchor="middle" font-weight="bold">RRF 최종 (k=60)</text>
      <g transform="translate(40, 70)">
        <text x="0" y="0" font-size="22" fill="#2e7d32" font-weight="bold">1위: 김치찌개 레시피</text>
        <text x="260" y="0" font-size="18" fill="#999">0.049</text>
        <text x="0" y="45" font-size="22" fill="#2e7d32" font-weight="bold">2위: 백종원 김치찌개</text>
        <text x="260" y="45" font-size="18" fill="#999">0.048</text>
        <text x="0" y="90" font-size="22" fill="#666">3위: 된장찌개 레시피</text>
        <text x="260" y="90" font-size="18" fill="#999">0.031</text>
        <text x="0" y="135" font-size="22" fill="#666">4위: 흑백요리사 김치찌개</text>
        <text x="260" y="135" font-size="18" fill="#999">0.016</text>
        <text x="0" y="180" font-size="22" fill="#666">5위: 제육볶음 레시피</text>
        <text x="260" y="180" font-size="18" fill="#999">0.015</text>
      </g>
    </g>
  </g>
  <g transform="translate(200, 970)">
    <rect x="0" y="0" width="1520" height="80" rx="20" fill="#667eea" filter="url(#shadow024)"/>
    <text x="760" y="50" font-size="28" fill="white" text-anchor="middle" font-weight="bold">💡 RRF는 서로 다른 검색 결과를 민주적으로 합침! (순위 기반, 단순 & 효과적)</text>
  </g>
  <text x="960" y="1065" font-size="20" fill="#333" text-anchor="middle" opacity="0.8">Slide 24 / 38</text>
</svg>
