<svg viewBox="0 0 1920 1080" xmlns="http://www.w3.org/2000/svg">
  <defs>
    <linearGradient id="bgGrad013" x1="0%" y1="0%" x2="100%" y2="100%">
      <stop offset="0%" style="stop-color:#a8edea;stop-opacity:1" />
      <stop offset="100%" style="stop-color:#fed6e3;stop-opacity:1" />
    </linearGradient>
    <filter id="shadow013">
      <feDropShadow dx="0" dy="4" stdDeviation="8" flood-opacity="0.3"/>
    </filter>
  </defs>

  <!-- Background -->
  <rect width="1920" height="1080" fill="url(#bgGrad013)"/>

  <!-- Part Label -->
  <g transform="translate(150, 80)">
    <rect x="0" y="0" width="200" height="50" rx="25" fill="white" opacity="0.5"/>
    <text x="100" y="35" font-size="24" fill="#333" text-anchor="middle" font-weight="bold">Part 2</text>
  </g>

  <!-- Title -->
  <text x="960" y="140" font-size="56" fill="#333" text-anchor="middle" font-weight="bold">
    κ°μ„  λ΅λ“λ§µ π—ΊοΈ
  </text>
  <text x="960" y="200" font-size="32" fill="#666" text-anchor="middle">
    35% β†’ 85%+ μ„±λ¥ ν–¥μƒ μ—¬μ •
  </text>

  <!-- Roadmap -->
  <g transform="translate(150, 280)">
    <!-- Current State -->
    <g transform="translate(0, 0)">
      <rect x="0" y="0" width="350" height="600" rx="20" fill="#ffebee" filter="url(#shadow013)"/>

      <text x="175" y="50" font-size="32" fill="#c62828" text-anchor="middle" font-weight="bold">ν„μ¬ μƒνƒ</text>
      <text x="175" y="90" font-size="24" fill="#e57373" text-anchor="middle">Naive RAG</text>

      <circle cx="175" cy="160" r="60" fill="#ef5350"/>
      <text x="175" y="180" font-size="48" fill="white" text-anchor="middle" font-weight="bold">35%</text>

      <g transform="translate(40, 250)">
        <text x="0" y="0" font-size="22" fill="#666" font-weight="bold">λ¬Έμ μ :</text>
        <text x="0" y="40" font-size="20" fill="#666">β μλ―Έ μ°¨μ΄</text>
        <text x="0" y="75" font-size="20" fill="#666">β λ¬Έλ§¥ ννΈν™”</text>
        <text x="0" y="110" font-size="20" fill="#666">β λ¨νΈν• μ§λ¬Έ</text>
        <text x="0" y="145" font-size="20" fill="#666">β μ¤λλ μ •λ³΄</text>
        <text x="0" y="180" font-size="20" fill="#666">β λ‚®μ€ κ΄€λ ¨μ„±</text>

        <text x="0" y="240" font-size="20" fill="#999">Top-Kλ§ μ‚¬μ©</text>
        <text x="0" y="270" font-size="20" fill="#999">ν•„ν„°λ§ μ—†μ</text>
        <text x="0" y="300" font-size="20" fill="#999">λ‹¨μ λ²΅ν„° κ²€μƒ‰</text>
      </g>
    </g>

    <!-- Arrow -->
    <polygon points="380,290 470,290 450,270 470,290 450,310" fill="#4caf50" stroke="#2e7d32" stroke-width="3"/>
    <text x="425" y="260" font-size="24" fill="#2e7d32" text-anchor="middle" font-weight="bold">κ°μ„ !</text>

    <!-- Improvement Steps -->
    <g transform="translate(500, 0)">
      <rect x="0" y="0" width="1070" height="600" rx="20" fill="white" opacity="0.95" filter="url(#shadow013)"/>

      <text x="535" y="50" font-size="32" fill="#2e7d32" text-anchor="middle" font-weight="bold">κ°μ„  λ‹¨κ³„</text>

      <!-- Step 1: Prompt Engineering -->
      <g transform="translate(50, 90)">
        <rect x="0" y="0" width="470" height="100" rx="15" fill="#e3f2fd"/>
        <circle cx="50" cy="50" r="30" fill="#1976d2"/>
        <text x="50" y="60" font-size="24" fill="white" text-anchor="middle" font-weight="bold">1</text>
        <text x="100" y="40" font-size="24" fill="#1976d2" font-weight="bold">Prompt Engineering</text>
        <text x="100" y="70" font-size="18" fill="#666">μ‹μ¤ν… ν”„λ΅¬ν”„νΈ κ°μ„ </text>
        <text x="390" y="55" font-size="28" fill="#4caf50" font-weight="bold">+20%</text>
      </g>

      <!-- Step 2: Query Refinement -->
      <g transform="translate(550, 90)">
        <rect x="0" y="0" width="470" height="100" rx="15" fill="#f3e5f5"/>
        <circle cx="50" cy="50" r="30" fill="#7b1fa2"/>
        <text x="50" y="60" font-size="24" fill="white" text-anchor="middle" font-weight="bold">2</text>
        <text x="100" y="40" font-size="24" fill="#7b1fa2" font-weight="bold">Query Refinement</text>
        <text x="100" y="70" font-size="18" fill="#666">μ§λ¬Έ λ³€ν™ (Multi-Query, HyDE)</text>
        <text x="390" y="55" font-size="28" fill="#4caf50" font-weight="bold">+10%</text>
      </g>

      <!-- Step 3: Metadata Filtering -->
      <g transform="translate(50, 210)">
        <rect x="0" y="0" width="470" height="100" rx="15" fill="#fff3e0"/>
        <circle cx="50" cy="50" r="30" fill="#e65100"/>
        <text x="50" y="60" font-size="24" fill="white" text-anchor="middle" font-weight="bold">3</text>
        <text x="100" y="40" font-size="24" fill="#e65100" font-weight="bold">Metadata Filtering</text>
        <text x="100" y="70" font-size="18" fill="#666">μ‹κ°„/μΉ΄ν…κ³ λ¦¬ μ‚¬μ „ ν•„ν„°λ§</text>
        <text x="390" y="55" font-size="28" fill="#4caf50" font-weight="bold">+5%</text>
      </g>

      <!-- Step 4: Hybrid Search -->
      <g transform="translate(550, 210)">
        <rect x="0" y="0" width="470" height="100" rx="15" fill="#e8f5e9"/>
        <circle cx="50" cy="50" r="30" fill="#2e7d32"/>
        <text x="50" y="60" font-size="24" fill="white" text-anchor="middle" font-weight="bold">4</text>
        <text x="100" y="40" font-size="24" fill="#2e7d32" font-weight="bold">Hybrid Search</text>
        <text x="100" y="70" font-size="18" fill="#666">Vector + BM25 μ΅°ν•©</text>
        <text x="390" y="55" font-size="28" fill="#4caf50" font-weight="bold">+10%</text>
      </g>

      <!-- Step 5: Reranking -->
      <g transform="translate(50, 330)">
        <rect x="0" y="0" width="470" height="100" rx="15" fill="#fce4ec"/>
        <circle cx="50" cy="50" r="30" fill="#c2185b"/>
        <text x="50" y="60" font-size="24" fill="white" text-anchor="middle" font-weight="bold">5</text>
        <text x="100" y="40" font-size="24" fill="#c2185b" font-weight="bold">Cross-Encoder Reranking</text>
        <text x="100" y="70" font-size="18" fill="#666">2λ‹¨κ³„ μ •λ°€ μ¬μμ„ν™”</text>
        <text x="390" y="55" font-size="28" fill="#4caf50" font-weight="bold">+5%</text>
      </g>

      <!-- Step 6: Self-RAG -->
      <g transform="translate(550, 330)">
        <rect x="0" y="0" width="470" height="100" rx="15" fill="#fff9c4"/>
        <circle cx="50" cy="50" r="30" fill="#f57f17"/>
        <text x="50" y="60" font-size="24" fill="white" text-anchor="middle" font-weight="bold">6</text>
        <text x="100" y="40" font-size="24" fill="#f57f17" font-weight="bold">Self-RAG / CRAG</text>
        <text x="100" y="70" font-size="18" fill="#666">μκ°€ ν‰κ°€ λ° λ³΄μ •</text>
        <text x="390" y="55" font-size="28" fill="#4caf50" font-weight="bold">+5%</text>
      </g>

      <!-- Final Result -->
      <rect x="200" y="460" width="670" height="110" rx="20" fill="#4caf50" filter="url(#shadow013)"/>
      <text x="535" y="500" font-size="28" fill="white" text-anchor="middle" font-weight="bold">μµμΆ… μ„±λ¥</text>
      <circle cx="400" cy="530" r="35" fill="#2e7d32"/>
      <text x="400" y="543" font-size="32" fill="white" text-anchor="middle" font-weight="bold">85%+</text>
      <text x="670" y="530" font-size="32" fill="white" text-anchor="middle" font-weight="bold">π‰ μ„±κ³µ!</text>
    </g>
  </g>

  <!-- Bottom Note -->
  <g transform="translate(150, 910)">
    <rect x="0" y="0" width="1620" height="120" rx="20" fill="#263238" filter="url(#shadow013)"/>
    <text x="810" y="50" font-size="28" fill="#81c784" text-anchor="middle" font-weight="bold">
      π’΅ μ΄μ λ¶€ν„° κ° κ°μ„  κΈ°λ²•μ„ ν•λ‚μ”© μμ„Έν λ°°μ›λ΄…μ‹λ‹¤!
    </text>
    <text x="810" y="90" font-size="22" fill="#b0bec5" text-anchor="middle">
      Part 3~6μ—μ„ λ¨λ“  κΈ°λ²•μ„ μ‹¤μµκ³Ό ν•¨κ» ν•™μµν•©λ‹λ‹¤
    </text>
  </g>

  <!-- Footer -->
  <text x="960" y="1065" font-size="20" fill="#333" text-anchor="middle" opacity="0.8">
    Slide 13 / 38 | Part 2 μ™„λ£! π―
  </text>
</svg>
