<svg viewBox="0 0 1920 1080" xmlns="http://www.w3.org/2000/svg">
  <defs>
    <linearGradient id="bgGrad022" x1="0%" y1="0%" x2="100%" y2="100%">
      <stop offset="0%" style="stop-color:#fa709a;stop-opacity:1" />
      <stop offset="100%" style="stop-color:#fee140;stop-opacity:1" />
    </linearGradient>
    <filter id="shadow022">
      <feDropShadow dx="0" dy="4" stdDeviation="8" flood-opacity="0.3"/>
    </filter>
  </defs>
  <rect width="1920" height="1080" fill="url(#bgGrad022)"/>
  <g transform="translate(150, 80)">
    <rect x="0" y="0" width="200" height="50" rx="25" fill="white" opacity="0.3"/>
    <text x="100" y="35" font-size="24" fill="white" text-anchor="middle" font-weight="bold">Part 4</text>
  </g>
  <text x="960" y="140" font-size="56" fill="white" text-anchor="middle" font-weight="bold">BM25 알고리즘 🔤</text>
  <text x="960" y="200" font-size="32" fill="white" text-anchor="middle" opacity="0.9">키워드 빈도로 점수 매기기</text>
  <g transform="translate(200, 260)">
    <rect x="0" y="0" width="1520" height="180" rx="20" fill="white" opacity="0.95" filter="url(#shadow022)"/>
    <text x="760" y="45" font-size="32" fill="#333" text-anchor="middle" font-weight="bold">BM25 = Best Matching 25 (TF-IDF 개선판)</text>
    <g transform="translate(100, 90)">
      <text x="0" y="0" font-size="24" fill="#666">✓ <tspan font-weight="bold">Term Frequency (TF)</tspan>: 문서에 해당 단어가 얼마나 자주 등장하나?</text>
      <text x="0" y="45" font-size="24" fill="#666">✓ <tspan font-weight="bold">Document Frequency (DF)</tspan>: 해당 단어가 모든 문서에 얼마나 흔한가? (흔하면 중요도 ↓)</text>
    </g>
  </g>
  <g transform="translate(200, 470)">
    <rect x="0" y="0" width="740" height="450" rx="20" fill="#263238" filter="url(#shadow022)"/>
    <text x="370" y="50" font-size="32" fill="#81c784" text-anchor="middle" font-weight="bold">예시: "김치찌개 레시피"</text>
    <g transform="translate(50, 100)">
      <rect x="0" y="0" width="640" height="130" rx="15" fill="#37474f"/>
      <text x="320" y="35" font-size="24" fill="#e0e0e0" text-anchor="middle" font-weight="bold">문서 A: 김치찌개 전문</text>
      <text x="20" y="70" font-size="20" fill="#81c784">"김치찌개"</text>
      <text x="200" y="70" font-size="20" fill="#e0e0e0">등장 5회 ← 빈도 높음</text>
      <text x="20" y="105" font-size="20" fill="#81c784">"레시피"</text>
      <text x="200" y="105" font-size="20" fill="#e0e0e0">등장 3회</text>
      <circle cx="580" cy="65" r="45" fill="#4caf50"/>
      <text x="580" y="77" font-size="32" fill="white" text-anchor="middle" font-weight="bold">9.5</text>
      <rect x="0" y="160" width="640" height="130" rx="15" fill="#37474f"/>
      <text x="320" y="195" font-size="24" fill="#e0e0e0" text-anchor="middle" font-weight="bold">문서 B: 된장찌개 위주</text>
      <text x="20" y="230" font-size="20" fill="#ff8a80">"김치찌개"</text>
      <text x="200" y="230" font-size="20" fill="#e0e0e0">등장 1회 ← 빈도 낮음</text>
      <text x="20" y="265" font-size="20" fill="#ff8a80">"레시피"</text>
      <text x="200" y="265" font-size="20" fill="#e0e0e0">등장 2회</text>
      <circle cx="580" cy="225" r="45" fill="#ef5350"/>
      <text x="580" y="237" font-size="32" fill="white" text-anchor="middle" font-weight="bold">2.3</text>
    </g>
  </g>
  <g transform="translate(970, 470)">
    <rect x="0" y="0" width="750" height="450" rx="20" fill="white" opacity="0.95" filter="url(#shadow022)"/>
    <text x="375" y="50" font-size="32" fill="#333" text-anchor="middle" font-weight="bold">🎯 장점 & 단점</text>
    <g transform="translate(60, 100)">
      <rect x="0" y="0" width="630" height="140" rx="15" fill="#e8f5e9"/>
      <text x="315" y="35" font-size="26" fill="#2e7d32" text-anchor="middle" font-weight="bold">✅ 장점</text>
      <text x="30" y="70" font-size="22" fill="#666">• 정확한 키워드 매칭</text>
      <text x="30" y="105" font-size="22" fill="#666">• 빠른 속도 (인덱스 기반)</text>
      <rect x="0" y="160" width="630" height="140" rx="15" fill="#ffebee"/>
      <text x="315" y="195" font-size="26" fill="#c62828" text-anchor="middle" font-weight="bold">❌ 단점</text>
      <text x="30" y="230" font-size="22" fill="#666">• 의미 이해 불가 (동의어 X)</text>
      <text x="30" y="265" font-size="22" fill="#666">• 표현이 다르면 검색 실패</text>
    </g>
    <rect x="60" y="330" width="630" height="90" rx="15" fill="#fff9c4"/>
    <text x="375" y="370" font-size="24" fill="#f57f17" text-anchor="middle" font-weight="bold">💡 해결책</text>
    <text x="375" y="405" font-size="22" fill="#666" text-anchor="middle">→ Vector Search와 조합!</text>
  </g>
  <g transform="translate(200, 950)">
    <rect x="0" y="0" width="1520" height="80" rx="20" fill="#4caf50" filter="url(#shadow022)"/>
    <text x="760" y="50" font-size="28" fill="white" text-anchor="middle" font-weight="bold">💡 BM25는 "정확한 키워드"에 강함! Vector Search는 "의미/문맥"에 강함!</text>
  </g>
  <text x="960" y="1065" font-size="20" fill="white" text-anchor="middle" opacity="0.8">Slide 22 / 38</text>
</svg>
